<svg width="172" height="66" viewBox="0 0 172 66" fill="none" xmlns="http://www.w3.org/2000/svg">
<path d="M92.7908 42.4968H86.347L83.4721 35.6457H71.9724L69.2957 42.4968H63.645L75.4421 13.603H80.498L92.7908 42.4968ZM81.7868 31.4755L78.3171 23.135C78.1188 22.5392 77.6231 20.9506 77.524 20.3548C77.3257 21.0499 77.0283 22.44 76.7309 23.135L73.5586 31.4755H81.7868Z" fill="#2F2874"/>
<path d="M118.368 42.4971H112.023L108.256 36.5396C104.588 30.7807 103.299 30.2843 101.416 30.2843H100.623V42.4971H94.7735V20.2559C94.7735 17.0785 94.4761 15.0927 92.4934 14.3977V13.7026H103.795C109.644 13.7026 113.312 16.88 113.312 21.9438C113.312 24.9226 111.527 27.4048 108.752 28.5963C110.635 29.9864 111.924 32.0715 113.51 34.4545C114.601 36.1425 114.601 36.1425 114.601 36.1425L118.368 42.4971ZM102.506 17.9722H100.523V26.3126H102.506C105.282 26.3126 107.364 24.9226 107.364 22.1424C107.364 19.3622 105.381 17.9722 102.506 17.9722Z" fill="#2F2874"/>
<path d="M126.992 42.4968H121.143V20.2555C121.143 17.0782 120.846 14.9931 118.863 14.2981V13.603H126.992V42.4968Z" fill="#2F2874"/>
<path d="M149.397 34.7521C149.199 40.7096 144.242 43.0926 139.384 43.0926C137.104 43.0926 134.229 42.6954 131.85 41.0075V35.1493C134.13 37.5323 136.708 38.4259 139.186 38.4259C141.665 38.4259 143.449 37.433 143.746 35.4472C143.746 35.2486 143.746 35.05 143.746 34.9507C143.746 32.7663 141.764 31.7734 138.492 29.8869C135.122 28.0003 131.652 26.0145 131.652 21.0499C131.652 20.8513 131.652 20.6528 131.652 20.5535C131.949 14.9932 137.303 13.0073 141.169 13.0073C143.846 13.0073 146.324 13.6031 148.009 14.8939V20.3549C146.225 18.6669 144.143 17.7733 141.565 17.7733C138.988 17.7733 137.501 18.7662 137.402 20.3549C137.402 20.4542 137.402 20.5535 137.402 20.5535C137.402 22.3407 139.087 23.6315 141.962 25.2202C145.63 27.3053 149.298 29.2911 149.298 34.2557C149.397 34.4543 149.397 34.6528 149.397 34.7521Z" fill="#2F2874"/>
<path d="M172 42.4968H153.858V20.2555C153.858 17.0782 153.561 15.0924 151.578 14.2981V13.603H171.603V17.9718H159.608V25.6173H171.108V29.8868H159.608V37.9294H171.901V42.4968H172Z" fill="#2F2874"/>
<path d="M28.0553 0L40.3481 12.3121H15.6633L28.0553 0Z" fill="#009B3E"/>
<path d="M26.6674 57.6884L0 30.979H26.6674V57.6884Z" fill="#2F2874"/>
<path d="M57.8952 29.8864L45.2058 42.4964V17.2764L57.8952 29.8864Z" fill="#009B3E"/>
<path d="M31.9218 25.617H2.37939L10.905 17.1772H40.4474V47.2625L31.9218 55.8016V25.617Z" fill="#A2C617"/>
<path d="M64.8347 55.4041H63.6451V50.8367C63.6451 50.1416 63.546 49.7445 63.1494 49.6452V49.5459H64.8347V55.4041Z" fill="#898A8D"/>
<path d="M72.1708 55.4046H71.1794L67.9079 51.4329V55.4046H66.8175V50.8372C66.8175 50.1421 66.7183 49.745 66.3218 49.6457V49.5464H67.9079L71.0803 53.4187V49.5464H72.1708V55.4046Z" fill="#898A8D"/>
<path d="M77.7223 50.44H76.037V55.4046H74.8474V50.44H73.1621V49.5464H77.8215V50.44H77.7223Z" fill="#898A8D"/>
<path d="M82.2826 55.4046H78.6146V50.8372C78.6146 50.1421 78.5154 49.745 78.1189 49.6457V49.5464H82.2826V50.44H79.8042V52.0287H82.1834V52.9223H79.8042V54.6102H82.2826V55.4046Z" fill="#898A8D"/>
<path d="M88.7264 55.0073C88.1316 55.3051 87.4376 55.5037 86.6445 55.5037C84.6618 55.5037 83.2739 54.2129 83.2739 52.4257C83.2739 50.6384 84.6618 49.3477 86.6445 49.3477C87.4376 49.3477 88.0324 49.5462 88.5281 49.8441V50.9363C87.9333 50.4399 87.4376 50.2413 86.6445 50.2413C85.4549 50.2413 84.5627 51.1349 84.5627 52.4257C84.5627 53.7165 85.3558 54.6101 86.6445 54.6101C86.9419 54.6101 87.2393 54.6101 87.5368 54.5108V53.3193H86.4463V52.4257H88.7264V55.0073Z" fill="#898A8D"/>
<path d="M95.0711 55.4046H93.7823L92.9893 54.2131C92.2953 53.0216 91.9979 52.9223 91.6014 52.9223H91.4031V55.4046H90.2135V50.8372C90.2135 50.1421 90.1143 49.745 89.7178 49.6457V49.5464H91.9979C93.1875 49.5464 93.9806 50.1421 93.9806 51.2343C93.9806 51.8301 93.5841 52.3265 93.0884 52.6244C93.4849 52.9223 93.7823 53.3195 94.0797 53.8159C94.278 54.1138 94.278 54.1138 94.278 54.1138L95.0711 55.4046ZM91.7996 50.44H91.4031V52.128H91.7996C92.3944 52.128 92.791 51.8301 92.791 51.2343C92.791 50.6386 92.3944 50.44 91.7996 50.44Z" fill="#898A8D"/>
<path d="M101.317 55.4046H100.028L99.433 54.0145H97.0537L96.4589 55.4046H95.2693L97.6485 49.5464H98.6399L101.317 55.4046ZM99.0364 53.1209L98.3425 51.4329C98.2433 51.3336 98.2433 51.0358 98.1442 50.8372C98.1442 50.9365 98.0451 51.2343 97.9459 51.4329L97.3511 53.1209H99.0364Z" fill="#898A8D"/>
<path d="M105.381 50.44H103.696V55.4046H102.506V50.44H100.821V49.5464H105.48V50.44H105.381Z" fill="#898A8D"/>
<path d="M110.04 55.4046H106.372V50.8372C106.372 50.1421 106.273 49.745 105.877 49.6457V49.5464H109.941V50.44H107.463V52.0287H109.842V52.9223H107.463V54.6102H109.941V55.4046H110.04Z" fill="#898A8D"/>
<path d="M113.709 55.4046H111.528V50.8372C111.528 50.1421 111.429 49.745 111.032 49.6457V49.5464H113.61C115.691 49.5464 116.782 51.0358 116.782 52.5251C116.881 53.9152 115.89 55.4046 113.709 55.4046ZM113.411 50.44H112.717V54.511H113.411C114.997 54.511 115.592 53.4187 115.592 52.5251C115.592 51.5322 114.997 50.44 113.411 50.44Z" fill="#898A8D"/>
<path d="M121.739 55.4046H120.549V50.8372C120.549 50.1421 120.45 49.745 120.053 49.6457V49.5464H121.739V55.4046Z" fill="#898A8D"/>
<path d="M128.975 55.4046H127.984L124.713 51.4329V55.4046H123.622V50.8372C123.622 50.1421 123.523 49.745 123.126 49.6457V49.5464H124.713L127.885 53.4187V49.5464H128.975V55.4046Z" fill="#898A8D"/>
<path d="M132.941 55.4046H130.859V50.8372C130.859 50.1421 130.76 49.745 130.363 49.6457V49.5464H132.941C135.023 49.5464 136.113 51.0358 136.113 52.5251C136.113 53.9152 135.122 55.4046 132.941 55.4046ZM132.743 50.44H132.049V54.511H132.743C134.329 54.511 134.924 53.4187 134.924 52.5251C134.824 51.5322 134.329 50.44 132.743 50.44Z" fill="#898A8D"/>
<path d="M142.458 53.0216C142.458 54.8088 141.466 55.5039 139.979 55.5039C138.492 55.5039 137.501 54.7095 137.501 53.0216V50.8372C137.501 50.1421 137.402 49.745 137.005 49.6457V49.5464H138.691V53.1209C138.691 54.0145 139.087 54.511 139.979 54.511C140.872 54.511 141.268 53.9152 141.268 53.1209V49.5464H142.458V53.0216Z" fill="#898A8D"/>
<path d="M147.315 53.8156C147.216 55.0071 146.225 55.5035 145.333 55.5035C144.837 55.5035 144.242 55.4043 143.846 55.1064V53.9149C144.341 54.4113 144.837 54.6099 145.333 54.6099C145.828 54.6099 146.225 54.4113 146.225 54.0142V53.9149C146.225 53.5177 145.828 53.2198 145.134 52.922C144.441 52.5248 143.747 52.1276 143.747 51.1347V51.0354C143.846 49.9432 144.936 49.4468 145.63 49.4468C146.225 49.4468 146.721 49.5461 147.018 49.8439V50.9361C146.622 50.6383 146.225 50.4397 145.729 50.4397C145.234 50.4397 144.936 50.6383 144.837 50.9361C144.837 50.9361 144.837 50.9361 144.837 51.0354C144.837 51.4326 145.134 51.6312 145.729 52.0284C146.622 52.3262 147.315 52.7234 147.315 53.8156Z" fill="#898A8D"/>
<path d="M152.471 50.44H150.785V55.4046H149.596V50.44H147.91V49.5464H152.57V50.44H152.471Z" fill="#898A8D"/>
<path d="M158.22 55.4046H156.932L156.139 54.2131C155.445 53.0216 155.147 52.9223 154.751 52.9223H154.652V55.4046H153.462V50.8372C153.462 50.1421 153.363 49.745 152.966 49.6457V49.5464H155.246C156.436 49.5464 157.229 50.1421 157.229 51.2343C157.229 51.8301 156.833 52.3265 156.337 52.6244C156.733 52.9223 157.031 53.3195 157.328 53.8159C157.527 54.1138 157.527 54.1138 157.527 54.1138L158.22 55.4046ZM155.048 50.44H154.652V52.128H155.048C155.643 52.128 156.04 51.8301 156.04 51.2343C156.04 50.6386 155.544 50.44 155.048 50.44Z" fill="#898A8D"/>
<path d="M160.401 55.4046H159.212V50.8372C159.212 50.1421 159.113 49.745 158.716 49.6457V49.5464H160.401V55.4046Z" fill="#898A8D"/>
<path d="M167.242 55.4046H165.953L165.358 54.0145H162.979L162.384 55.4046H161.194L163.574 49.5464H164.565L167.242 55.4046ZM165.061 53.1209L164.367 51.4329C164.268 51.3336 164.268 51.0358 164.168 50.8372C164.168 50.9365 164.069 51.2343 163.97 51.4329L163.375 53.1209H165.061Z" fill="#898A8D"/>
<path d="M171.703 55.4046H168.134V50.8372C168.134 50.1421 168.035 49.745 167.638 49.6457V49.5464H169.323V54.511H171.703V55.4046Z" fill="#898A8D"/>
<path d="M65.5287 63.2485H64.8347V65.5322H63.6451V60.9648C63.6451 60.2697 63.546 59.8726 63.1494 59.7733V59.5747H65.5287C66.7183 59.5747 67.6105 60.1705 67.6105 61.3619C67.6105 62.6527 66.7183 63.2485 65.5287 63.2485ZM65.3304 60.4683H64.8347V62.2556H65.3304C66.0243 62.2556 66.3217 61.8584 66.3217 61.3619C66.3217 60.8655 66.0243 60.4683 65.3304 60.4683Z" fill="#898A8D"/>
<path d="M72.4681 65.5322H68.8992V60.9648C68.8992 60.2697 68.8001 59.8726 68.4036 59.7733V59.5747H70.0889V64.5393H72.4681V65.5322Z" fill="#898A8D"/>
<path d="M78.7138 65.532H77.425L76.8302 64.1419H74.4509L73.9552 65.532H72.7656L75.1449 59.6738H76.1362L78.7138 65.532ZM76.5328 63.2483L75.8388 61.5604C75.7397 61.4611 75.7397 61.1632 75.6406 60.9646C75.6406 61.0639 75.5414 61.3618 75.4423 61.5604L74.8475 63.2483H76.5328Z" fill="#898A8D"/>
<path d="M82.7783 60.4683H81.093V65.4329H79.9033V60.4683H78.218V59.5747H82.8774V60.4683H82.7783Z" fill="#898A8D"/>
<path d="M87.2393 60.5676H84.9592V62.1563H87.1402V63.0499H84.9592V65.5322H83.7696V60.9648C83.7696 60.2697 83.6705 59.8726 83.2739 59.7733V59.5747H87.2393V60.5676Z" fill="#898A8D"/>
<path d="M91.3039 65.6316C89.4204 65.6316 88.0325 64.3409 88.0325 62.5536C88.0325 60.7664 89.4204 59.4756 91.3039 59.4756C93.2867 59.4756 94.5754 60.7664 94.5754 62.5536C94.6746 64.043 93.4849 65.6316 91.3039 65.6316ZM91.3039 60.3692C90.1143 60.3692 89.3212 61.2628 89.3212 62.5536C89.3212 63.7451 90.2134 64.738 91.3039 64.738C92.4936 64.738 93.2867 63.8444 93.2867 62.5536C93.2867 61.2628 92.4936 60.3692 91.3039 60.3692Z" fill="#898A8D"/>
<path d="M100.722 65.5322H99.4332L98.6401 64.3407C97.9462 63.1492 97.6488 63.0499 97.2522 63.0499H97.054V65.5322H95.8643V60.9648C95.8643 60.2697 95.7652 59.8726 95.3687 59.7733V59.5747H97.6488C98.8384 59.5747 99.6315 60.1705 99.6315 61.2627C99.6315 61.8584 99.2349 62.3549 98.7393 62.6527C99.1358 62.9506 99.4332 63.3478 99.7306 63.8442C99.9289 64.1421 99.9289 64.1421 99.9289 64.1421L100.722 65.5322ZM97.4505 60.4683H97.054V62.1563H97.4505C98.0453 62.1563 98.4419 61.8584 98.4419 61.2627C98.4419 60.7662 98.0453 60.4683 97.4505 60.4683Z" fill="#898A8D"/>
<path d="M107.661 65.5322H106.472V61.5605L104.886 63.8442H104.291L102.804 61.5605V65.5322H101.614V60.9648C101.614 60.2697 101.515 59.8726 101.118 59.7733V59.5747H102.804L104.588 62.2556L106.373 59.5747H107.463V65.5322H107.661Z" fill="#898A8D"/>
<path d="M112.717 63.9435C112.618 65.135 111.627 65.6315 110.735 65.6315C110.239 65.6315 109.644 65.5322 109.248 65.2343V64.0428C109.743 64.5393 110.239 64.7379 110.735 64.7379C111.23 64.7379 111.627 64.5393 111.627 64.1421V64.0428C111.627 63.6457 111.23 63.3478 110.536 63.0499C109.842 62.6527 109.148 62.2556 109.148 61.2627V61.1634C109.248 60.0712 110.338 59.5747 111.032 59.5747C111.627 59.5747 112.123 59.674 112.42 59.9719V61.0641C112.023 60.7662 111.627 60.5676 111.131 60.5676C110.635 60.5676 110.338 60.7662 110.239 61.0641C110.239 61.0641 110.239 61.0641 110.239 61.1634C110.239 61.5605 110.536 61.7591 111.131 62.1563C111.924 62.3549 112.717 62.8513 112.717 63.9435C112.717 63.8442 112.717 63.9435 112.717 63.9435Z" fill="#898A8D"/>
</svg>
